# xmcd
#
# Track frame offsets:
#	182
#	17772
#	36065
#	57465
#	74567
#	87997
#	108132
#	130280
#	144137
#	162675
#	182920
#	205352
#	220977
#	232804
#	249661
#	265467
#	284955
#	298187
#	327276
#
# Disc length: 4731 seconds
#
# Revision: 2
# Processed by: cddbd v1.5.2PL0 Copyright (c) Steve Scherf et al.
# Submitted via: audiograbber 1.83.01
#
DISCID=34127913
DTITLE=Karlzen, Mary - Yelling at Mary
DYEAR=2006
DGENRE=Country
TTITLE0=Everybody's sleeping
TTITLE1=Stronger
TTITLE2=Dimestore life
TTITLE3=Time's forgotten crime
TTITLE4=I'd be lying
TTITLE5=The way I see it
TTITLE6=Wooden man
TTITLE7=Another town, another place
TTITLE8=Walk like you
TTITLE9=Wish you well
TTITLE10=Anywhere is better than here
TTITLE11=St. James Hotel
TTITLE12=I don't know (Original demo)
TTITLE13=Somewhere (Original demo)
TTITLE14=You still belong to me (Original demo)
TTITLE15=Dear Katie (Original demo)
TTITLE16=Hearts (Original 16 track demo)
TTITLE17=Wooden man (Original 4 track demo)
TTITLE18=Unknown
EXTD=
EXTT0=
EXTT1=
EXTT2=
EXTT3=
EXTT4=
EXTT5=
EXTT6=
EXTT7=
EXTT8=
EXTT9=
EXTT10=
EXTT11=
EXTT12=
EXTT13=
EXTT14=
EXTT15=
EXTT16=
EXTT17=
EXTT18=
PLAYORDER=
